<svg width="35" height="34" viewBox="0 0 35 34" fill="none" xmlns="http://www.w3.org/2000/svg">
<path d="M1.61095 30.69C1.26492 30.5024 0.959832 30.2475 0.71361 29.9403C0.467387 29.6331 0.284989 29.2798 0.177127 28.9011C0.0692654 28.5224 0.038119 28.1259 0.0855054 27.735C0.132892 27.3441 0.257855 26.9666 0.453071 26.6246C3.652 21.1433 8.86852 17.1329 14.9858 15.452C21.1032 13.7711 27.6351 14.5533 33.1832 17.6311C33.5292 17.8187 33.8343 18.0735 34.0805 18.3807C34.3267 18.6879 34.5091 19.0412 34.617 19.4199C34.7248 19.7986 34.756 20.1951 34.7086 20.586C34.6613 20.9769 34.5363 21.3543 34.3411 21.6963C31.1422 27.1776 25.9257 31.1881 19.8084 32.869C13.691 34.55 7.1591 33.7678 1.61095 30.69Z" fill="white"/>
<path d="M27.5956 13.9718C29.127 10.6262 29.9207 6.98989 29.9227 3.31005C29.9144 2.42422 29.5548 1.57776 28.923 0.957192C28.2912 0.336626 27.4389 -0.0074094 26.5536 0.000735163C19.853 -0.0522595 13.3826 2.44432 8.45255 6.98502C3.52246 11.5257 0.501017 17.7712 -3.8147e-05 24.457C2.9439 20.0605 7.18185 16.6893 12.1264 14.8106C17.0709 12.9318 22.4771 12.6387 27.5956 13.9718Z" fill="white"/>
</svg>
